<svg width="92" height="131" viewBox="0 0 92 131" fill="none" xmlns="http://www.w3.org/2000/svg">
<path d="M1.326 120.98L15.096 102.756H2.006V97.384H23.494V101.464L9.724 119.688H24.174V125.06H1.326V120.98ZM36.2235 115.676C35.9969 115.767 35.7362 115.812 35.4415 115.812C33.6509 115.812 31.9962 115.415 30.4775 114.622C28.9815 113.829 27.7915 112.718 26.9075 111.29C26.0235 109.862 25.5815 108.241 25.5815 106.428C25.5815 104.501 26.0462 102.801 26.9755 101.328C27.9275 99.8547 29.1969 98.7213 30.7835 97.928C32.3929 97.112 34.1609 96.704 36.0875 96.704C38.0142 96.704 39.7709 97.112 41.3575 97.928C42.9669 98.7213 44.2362 99.8547 45.1655 101.328C46.1175 102.779 46.5935 104.467 46.5935 106.394C46.5935 107.663 46.3895 108.865 45.9815 109.998C45.5735 111.109 44.9389 112.355 44.0775 113.738L36.9375 125.06H29.9335L36.2235 115.676ZM36.0875 110.78C37.4475 110.78 38.5355 110.361 39.3515 109.522C40.1675 108.683 40.5755 107.629 40.5755 106.36C40.5755 105.091 40.1675 104.037 39.3515 103.198C38.5355 102.359 37.4475 101.94 36.0875 101.94C34.7275 101.94 33.6395 102.359 32.8235 103.198C32.0075 104.037 31.5995 105.091 31.5995 106.36C31.5995 107.629 32.0075 108.683 32.8235 109.522C33.6395 110.361 34.7275 110.78 36.0875 110.78ZM67.9437 101.022L57.6417 125.06H51.1817L60.7357 102.722H48.9037V97.35H67.9437V101.022ZM80.2509 115.676C80.0242 115.767 79.7636 115.812 79.4689 115.812C77.6782 115.812 76.0236 115.415 74.5049 114.622C73.0089 113.829 71.8189 112.718 70.9349 111.29C70.0509 109.862 69.6089 108.241 69.6089 106.428C69.6089 104.501 70.0736 102.801 71.0029 101.328C71.9549 99.8547 73.2242 98.7213 74.8109 97.928C76.4202 97.112 78.1882 96.704 80.1149 96.704C82.0416 96.704 83.7982 97.112 85.3849 97.928C86.9942 98.7213 88.2636 99.8547 89.1929 101.328C90.1449 102.779 90.6209 104.467 90.6209 106.394C90.6209 107.663 90.4169 108.865 90.0089 109.998C89.6009 111.109 88.9662 112.355 88.1049 113.738L80.9649 125.06H73.9609L80.2509 115.676ZM80.1149 110.78C81.4749 110.78 82.5629 110.361 83.3789 109.522C84.1949 108.683 84.6029 107.629 84.6029 106.36C84.6029 105.091 84.1949 104.037 83.3789 103.198C82.5629 102.359 81.4749 101.94 80.1149 101.94C78.7549 101.94 77.6669 102.359 76.8509 103.198C76.0349 104.037 75.6269 105.091 75.6269 106.36C75.6269 107.629 76.0349 108.683 76.8509 109.522C77.6669 110.361 78.7549 110.78 80.1149 110.78Z" fill="url(#paint0_linear_261_272)"/>
<path d="M46 7.66663C24.84 7.66663 7.66667 24.84 7.66667 46C7.66667 67.16 24.84 84.3333 46 84.3333C67.16 84.3333 84.3333 67.16 84.3333 46C84.3333 24.84 67.16 7.66663 46 7.66663ZM15.3333 46C15.3333 43.6616 15.64 41.3616 16.1383 39.1766L34.4617 57.5V61.3333C34.4617 65.55 37.9117 69 42.1283 69V76.3983C27.0633 74.4816 15.3333 61.6016 15.3333 46ZM68.5783 66.7C67.5817 63.595 64.745 61.3333 61.295 61.3333H57.4617V49.8333C57.4617 47.725 55.7367 46 53.6283 46H30.6283V38.3333H38.295C40.4033 38.3333 42.1283 36.6083 42.1283 34.5V26.8333H49.795C54.0117 26.8333 57.4617 23.3833 57.4617 19.1666V17.595C68.6933 22.1183 76.6667 33.1583 76.6667 46C76.6667 53.9733 73.5617 61.2566 68.5783 66.7Z" fill="#183379" fill-opacity="0.86"/>
<path d="M46 7.66663C24.84 7.66663 7.66667 24.84 7.66667 46C7.66667 67.16 24.84 84.3333 46 84.3333C67.16 84.3333 84.3333 67.16 84.3333 46C84.3333 24.84 67.16 7.66663 46 7.66663ZM15.3333 46C15.3333 43.6616 15.64 41.3616 16.1383 39.1766L34.4617 57.5V61.3333C34.4617 65.55 37.9117 69 42.1283 69V76.3983C27.0633 74.4816 15.3333 61.6016 15.3333 46ZM68.5783 66.7C67.5817 63.595 64.745 61.3333 61.295 61.3333H57.4617V49.8333C57.4617 47.725 55.7367 46 53.6283 46H30.6283V38.3333H38.295C40.4033 38.3333 42.1283 36.6083 42.1283 34.5V26.8333H49.795C54.0117 26.8333 57.4617 23.3833 57.4617 19.1666V17.595C68.6933 22.1183 76.6667 33.1583 76.6667 46C76.6667 53.9733 73.5617 61.2566 68.5783 66.7Z" fill="url(#paint1_linear_261_272)"/>
<defs>
<linearGradient id="paint0_linear_261_272" x1="-5.65578e-07" y1="111" x2="90" y2="111" gradientUnits="userSpaceOnUse">
<stop stop-color="#12A044"/>
<stop offset="1" stop-color="#365290"/>
</linearGradient>
<linearGradient id="paint1_linear_261_272" x1="46" y1="7.66663" x2="46" y2="84.3333" gradientUnits="userSpaceOnUse">
<stop stop-color="#0DBB14"/>
<stop offset="1" stop-color="#006EEF" stop-opacity="0"/>
</linearGradient>
</defs>
</svg>
